<svg xmlns="http://www.w3.org/2000/svg" xml:space="preserve" width="800" height="800" viewBox="0 0 195.645 195.645"><path d="M102.123 90.756c0 6.313-5.136 11.449-11.442 11.449-6.313 0-11.445-5.136-11.445-11.449 0-6.306 5.132-11.438 11.445-11.438 6.306 0 11.442 5.132 11.442 11.438zm6.019-1.811v3.615h72.812v-3.615h-72.812zm-8.736 16.935 48.4 48.393 2.552-2.548-48.4-48.397-2.552 2.552zM88.87 195.645h3.622v-87.438H88.87v87.438zm-14.688-106.7H14.691v3.615h59.491v-3.615zM92.492 0H88.87v74.905h3.622V0zM79.683 84.364l2.154-2.906-45.633-33.899-.676-.505-2.158 2.906L79 83.867l.683.497zm70.786-53.242-2.62-2.502-48.561 50.834 2.62 2.502 48.561-50.834zM37.088 151.897l2.731 2.373 42.141-48.536-2.734-2.369-42.138 48.532zm73.176-49.037 55.569 15.557.973-3.482-55.572-15.557-.97 3.482zm-67.243 4.795 1.249 3.396L74.744 99.86l-1.249-3.396-30.474 11.191zM108.779 84.4l49.768-17.257-1.188-3.418-49.76 17.257 1.18 3.418zm-24.848-8.815 3.285-1.521-27.968-60.493-.354-.769-3.285 1.521L83.58 74.819l.351.766z" style="fill:#010002"/></svg>